<svg xmlns="http://www.w3.org/2000/svg" width="512" height="512" viewBox="0 0 512 512">

  <defs>
    <clipPath id="masterClip">
      <circle cx="256" cy="256" r="220"/>
    </clipPath>
  </defs>
  <g clip-path="url(#masterClip)">

  <defs>
    <clipPath id="dataClip">
      <circle cx="256" cy="256" r="220"/>
    </clipPath>
    <radialGradient id="dataBg" cx="65%" cy="65%" r="70%">
      <stop offset="0%" stop-color="#0a0f1e"/>
      <stop offset="50%" stop-color="#06080f"/>
      <stop offset="100%" stop-color="#03040a"/>
    </radialGradient>
    <radialGradient id="nodeGlow" cx="50%" cy="50%" r="50%">
      <stop offset="0%" stop-color="#00e5ff" stop-opacity="1"/>
      <stop offset="40%" stop-color="#00e5ff" stop-opacity="0.5"/>
      <stop offset="100%" stop-color="#00e5ff" stop-opacity="0"/>
    </radialGradient>
    <linearGradient id="dataFade" x1="0" y1="0" x2="1" y2="1">
      <stop offset="0%" stop-color="black" stop-opacity="0"/>
      <stop offset="20%" stop-color="black" stop-opacity="0.15"/>
      <stop offset="40%" stop-color="black" stop-opacity="1"/>
    </linearGradient>
    <mask id="dataMask">
      <circle cx="256" cy="256" r="220" fill="white"/>
      <circle cx="256" cy="256" r="220" fill="url(#dataFade)"/>
    </mask>
    <filter id="nodeBlur">
      <feGaussianBlur stdDeviation="3"/>
    </filter>
  </defs>

  <g clip-path="url(#dataClip)">
    <!-- Background -->
    <circle cx="256" cy="256" r="220" fill="url(#dataBg)"/>
  
    <path d="M294.89,294.89 A55,55 0 1,1 217.11,217.11"
          fill="none" stroke="#00e5ff" stroke-width="1.2" stroke-opacity="0.55" stroke-linecap="round"/><circle cx="294.9" cy="294.9" r="2.1" fill="#00e5ff" fill-opacity="0.70"/><circle cx="275.1" cy="307.6" r="1.6" fill="#00e5ff" fill-opacity="0.44"/><circle cx="251.9" cy="310.8" r="2.1" fill="#00e5ff" fill-opacity="0.66"/><circle cx="229.4" cy="304.1" r="1.8" fill="#00e5ff" fill-opacity="0.71"/>
    <path d="M316.10,316.10 A85,85 0 1,1 195.90,195.90"
          fill="none" stroke="#0080ff" stroke-width="1.2" stroke-opacity="0.55" stroke-linecap="round"/><circle cx="316.1" cy="316.1" r="2.7" fill="#0080ff" fill-opacity="0.40"/><circle cx="299.7" cy="328.9" r="2.1" fill="#0080ff" fill-opacity="0.39"/><circle cx="280.6" cy="337.4" r="1.5" fill="#0080ff" fill-opacity="0.39"/><circle cx="260.1" cy="340.9" r="2.3" fill="#0080ff" fill-opacity="0.32"/><circle cx="239.3" cy="339.3" r="2.0" fill="#0080ff" fill-opacity="0.41"/><circle cx="219.5" cy="332.8" r="1.8" fill="#0080ff" fill-opacity="0.47"/><circle cx="201.9" cy="321.6" r="2.4" fill="#0080ff" fill-opacity="0.38"/>
    <path d="M337.32,337.32 A115,115 0 1,1 174.68,174.68"
          fill="none" stroke="#003fa0" stroke-width="1.2" stroke-opacity="0.55" stroke-linecap="round"/><circle cx="337.3" cy="337.3" r="2.6" fill="#003fa0" fill-opacity="0.34"/><circle cx="321.3" cy="350.6" r="1.9" fill="#003fa0" fill-opacity="0.33"/><circle cx="303.2" cy="360.9" r="2.1" fill="#003fa0" fill-opacity="0.31"/><circle cx="283.6" cy="367.6" r="2.3" fill="#003fa0" fill-opacity="0.31"/><circle cx="263.0" cy="370.8" r="2.0" fill="#003fa0" fill-opacity="0.43"/><circle cx="242.2" cy="370.2" r="2.4" fill="#003fa0" fill-opacity="0.38"/><circle cx="221.9" cy="365.8" r="2.3" fill="#003fa0" fill-opacity="0.29"/><circle cx="202.6" cy="357.9" r="2.5" fill="#003fa0" fill-opacity="0.42"/><circle cx="185.2" cy="346.6" r="1.6" fill="#003fa0" fill-opacity="0.32"/><circle cx="170.0" cy="332.3" r="2.7" fill="#003fa0" fill-opacity="0.34"/>
    <path d="M358.53,358.53 A145,145 0 1,1 153.47,153.47"
          fill="none" stroke="#00e5ff" stroke-width="1.2" stroke-opacity="0.55" stroke-linecap="round"/><circle cx="358.5" cy="358.5" r="2.2" fill="#00e5ff" fill-opacity="0.41"/><circle cx="343.5" cy="371.6" r="2.1" fill="#00e5ff" fill-opacity="0.29"/><circle cx="326.8" cy="382.5" r="2.2" fill="#00e5ff" fill-opacity="0.31"/><circle cx="308.8" cy="391.1" r="2.5" fill="#00e5ff" fill-opacity="0.35"/><circle cx="289.7" cy="397.0" r="2.9" fill="#00e5ff" fill-opacity="0.28"/><circle cx="270.1" cy="400.3" r="2.4" fill="#00e5ff" fill-opacity="0.39"/><circle cx="250.1" cy="400.9" r="2.1" fill="#00e5ff" fill-opacity="0.41"/><circle cx="230.3" cy="398.7" r="2.8" fill="#00e5ff" fill-opacity="0.24"/><circle cx="211.0" cy="393.8" r="2.9" fill="#00e5ff" fill-opacity="0.24"/><circle cx="192.5" cy="386.3" r="2.5" fill="#00e5ff" fill-opacity="0.34"/><circle cx="175.2" cy="376.4" r="1.7" fill="#00e5ff" fill-opacity="0.33"/><circle cx="159.4" cy="364.2" r="2.5" fill="#00e5ff" fill-opacity="0.28"/>
    <path d="M379.74,379.74 A175,175 0 1,1 132.26,132.26"
          fill="none" stroke="#0080ff" stroke-width="1.2" stroke-opacity="0.55" stroke-linecap="round"/><circle cx="379.7" cy="379.7" r="3.0" fill="#0080ff" fill-opacity="0.28"/><circle cx="364.8" cy="393.1" r="2.4" fill="#0080ff" fill-opacity="0.20"/><circle cx="348.4" cy="404.6" r="1.5" fill="#0080ff" fill-opacity="0.26"/><circle cx="330.7" cy="414.2" r="2.6" fill="#0080ff" fill-opacity="0.22"/><circle cx="312.1" cy="421.8" r="1.7" fill="#0080ff" fill-opacity="0.24"/><circle cx="292.8" cy="427.1" r="2.9" fill="#0080ff" fill-opacity="0.23"/><circle cx="273.0" cy="430.2" r="2.3" fill="#0080ff" fill-opacity="0.28"/><circle cx="252.9" cy="431.0" r="2.2" fill="#0080ff" fill-opacity="0.22"/><circle cx="232.9" cy="429.5" r="2.3" fill="#0080ff" fill-opacity="0.17"/><circle cx="213.2" cy="425.7" r="2.4" fill="#0080ff" fill-opacity="0.30"/><circle cx="194.1" cy="419.7" r="2.9" fill="#0080ff" fill-opacity="0.23"/><circle cx="175.7" cy="411.5" r="2.8" fill="#0080ff" fill-opacity="0.31"/><circle cx="158.5" cy="401.3" r="2.3" fill="#0080ff" fill-opacity="0.31"/><circle cx="142.5" cy="389.2" r="1.8" fill="#0080ff" fill-opacity="0.23"/><circle cx="128.0" cy="375.3" r="1.6" fill="#0080ff" fill-opacity="0.20"/>
    <path d="M397.42,397.42 A200,200 0 1,1 114.58,114.58"
          fill="none" stroke="#003fa0" stroke-width="1.2" stroke-opacity="0.55" stroke-linecap="round"/><circle cx="397.4" cy="397.4" r="1.9" fill="#003fa0" fill-opacity="0.22"/><circle cx="382.9" cy="410.6" r="2.6" fill="#003fa0" fill-opacity="0.13"/><circle cx="367.1" cy="422.3" r="2.2" fill="#003fa0" fill-opacity="0.14"/><circle cx="350.2" cy="432.4" r="1.7" fill="#003fa0" fill-opacity="0.22"/><circle cx="332.4" cy="440.8" r="2.2" fill="#003fa0" fill-opacity="0.20"/><circle cx="313.9" cy="447.4" r="2.1" fill="#003fa0" fill-opacity="0.19"/><circle cx="294.8" cy="452.2" r="2.3" fill="#003fa0" fill-opacity="0.21"/><circle cx="275.4" cy="455.1" r="2.4" fill="#003fa0" fill-opacity="0.12"/><circle cx="255.7" cy="456.0" r="2.3" fill="#003fa0" fill-opacity="0.19"/><circle cx="236.1" cy="455.0" r="2.4" fill="#003fa0" fill-opacity="0.15"/><circle cx="216.7" cy="452.1" r="2.4" fill="#003fa0" fill-opacity="0.20"/><circle cx="197.6" cy="447.3" r="2.3" fill="#003fa0" fill-opacity="0.18"/><circle cx="179.1" cy="440.6" r="2.4" fill="#003fa0" fill-opacity="0.12"/><circle cx="161.4" cy="432.2" r="2.8" fill="#003fa0" fill-opacity="0.15"/><circle cx="144.5" cy="422.1" r="1.6" fill="#003fa0" fill-opacity="0.14"/><circle cx="128.8" cy="410.3" r="2.9" fill="#003fa0" fill-opacity="0.22"/><circle cx="114.2" cy="397.1" r="2.8" fill="#003fa0" fill-opacity="0.20"/><circle cx="375.7" cy="359.1" r="0.8" fill="#80f0ff" fill-opacity="0.69"/><circle cx="355.2" cy="421.8" r="0.9" fill="#0080ff" fill-opacity="0.80"/><circle cx="251.3" cy="371.8" r="0.8" fill="#0080ff" fill-opacity="0.78"/><circle cx="377.0" cy="231.3" r="2.8" fill="#00e5ff" fill-opacity="0.48"/><circle cx="433.6" cy="355.8" r="0.6" fill="#80f0ff" fill-opacity="0.53"/><circle cx="298.7" cy="415.2" r="1.9" fill="#0080ff" fill-opacity="0.63"/><circle cx="296.8" cy="261.4" r="2.2" fill="#80f0ff" fill-opacity="0.28"/><circle cx="270.8" cy="470.2" r="1.6" fill="#80f0ff" fill-opacity="0.60"/><circle cx="434.0" cy="351.9" r="1.2" fill="#80f0ff" fill-opacity="0.60"/><circle cx="207.7" cy="430.7" r="1.8" fill="#80f0ff" fill-opacity="0.64"/><circle cx="229.7" cy="381.2" r="0.8" fill="#0080ff" fill-opacity="0.35"/><circle cx="290.1" cy="464.5" r="0.9" fill="#0080ff" fill-opacity="0.27"/><circle cx="328.3" cy="268.2" r="2.1" fill="#0080ff" fill-opacity="0.78"/><circle cx="226.7" cy="428.2" r="2.5" fill="#00e5ff" fill-opacity="0.89"/><circle cx="352.0" cy="383.5" r="1.3" fill="#00e5ff" fill-opacity="0.50"/><circle cx="249.2" cy="387.4" r="3.0" fill="#0080ff" fill-opacity="0.27"/><circle cx="344.3" cy="277.0" r="2.8" fill="#00e5ff" fill-opacity="0.72"/><circle cx="198.2" cy="350.0" r="1.8" fill="#00e5ff" fill-opacity="0.75"/><circle cx="431.0" cy="227.0" r="0.8" fill="#0080ff" fill-opacity="0.81"/><circle cx="380.1" cy="216.0" r="2.1" fill="#80f0ff" fill-opacity="0.70"/><circle cx="332.8" cy="291.9" r="1.3" fill="#00e5ff" fill-opacity="0.27"/><circle cx="298.8" cy="442.7" r="2.3" fill="#0080ff" fill-opacity="0.51"/><circle cx="344.2" cy="215.9" r="1.8" fill="#0080ff" fill-opacity="0.52"/><circle cx="302.5" cy="306.5" r="0.5" fill="#00e5ff" fill-opacity="0.89"/><circle cx="372.6" cy="402.2" r="1.5" fill="#00e5ff" fill-opacity="0.66"/><circle cx="436.5" cy="375.7" r="1.0" fill="#80f0ff" fill-opacity="0.38"/><circle cx="302.4" cy="339.3" r="2.1" fill="#80f0ff" fill-opacity="0.74"/><circle cx="397.0" cy="316.0" r="2.5" fill="#80f0ff" fill-opacity="0.23"/><circle cx="364.6" cy="437.5" r="2.8" fill="#00e5ff" fill-opacity="0.52"/><circle cx="465.1" cy="274.5" r="0.5" fill="#0080ff" fill-opacity="0.57"/><circle cx="438.3" cy="343.2" r="0.6" fill="#0080ff" fill-opacity="0.41"/><circle cx="428.6" cy="261.1" r="0.6" fill="#80f0ff" fill-opacity="0.65"/><circle cx="447.7" cy="210.6" r="1.8" fill="#80f0ff" fill-opacity="0.87"/><circle cx="257.1" cy="432.3" r="0.8" fill="#00e5ff" fill-opacity="0.34"/><circle cx="442.2" cy="307.1" r="2.5" fill="#00e5ff" fill-opacity="0.44"/><circle cx="190.5" cy="432.4" r="2.0" fill="#00e5ff" fill-opacity="0.57"/><circle cx="449.6" cy="225.9" r="1.6" fill="#0080ff" fill-opacity="0.74"/><circle cx="197.0" cy="442.1" r="1.2" fill="#00e5ff" fill-opacity="0.49"/><circle cx="359.7" cy="268.0" r="1.9" fill="#80f0ff" fill-opacity="0.78"/><circle cx="468.9" cy="227.6" r="1.3" fill="#0080ff" fill-opacity="0.53"/><circle cx="380.9" cy="315.6" r="0.7" fill="#00e5ff" fill-opacity="0.39"/><circle cx="275.7" cy="307.2" r="2.6" fill="#0080ff" fill-opacity="0.69"/><circle cx="366.7" cy="440.7" r="1.7" fill="#0080ff" fill-opacity="0.66"/><circle cx="232.6" cy="446.1" r="1.0" fill="#0080ff" fill-opacity="0.40"/><circle cx="246.2" cy="472.4" r="2.2" fill="#80f0ff" fill-opacity="0.56"/><circle cx="243.8" cy="285.7" r="1.1" fill="#80f0ff" fill-opacity="0.59"/><circle cx="380.9" cy="410.7" r="2.6" fill="#0080ff" fill-opacity="0.40"/><circle cx="358.1" cy="286.4" r="1.7" fill="#80f0ff" fill-opacity="0.26"/><circle cx="441.3" cy="331.9" r="1.6" fill="#0080ff" fill-opacity="0.48"/><circle cx="387.0" cy="408.1" r="2.3" fill="#00e5ff" fill-opacity="0.24"/><circle cx="327.0" cy="430.4" r="2.2" fill="#0080ff" fill-opacity="0.31"/><circle cx="439.7" cy="312.4" r="1.6" fill="#80f0ff" fill-opacity="0.52"/><circle cx="192.5" cy="343.0" r="2.9" fill="#00e5ff" fill-opacity="0.32"/><circle cx="422.0" cy="326.8" r="1.6" fill="#80f0ff" fill-opacity="0.67"/><circle cx="392.5" cy="221.6" r="1.1" fill="#80f0ff" fill-opacity="0.88"/><circle cx="422.1" cy="377.5" r="2.7" fill="#0080ff" fill-opacity="0.28"/><circle cx="235.5" cy="372.2" r="0.5" fill="#0080ff" fill-opacity="0.83"/><circle cx="419.1" cy="230.1" r="0.8" fill="#0080ff" fill-opacity="0.47"/><circle cx="433.2" cy="317.1" r="2.2" fill="#80f0ff" fill-opacity="0.63"/><circle cx="301.3" cy="450.3" r="1.9" fill="#00e5ff" fill-opacity="0.64"/><circle cx="324.3" cy="408.4" r="2.7" fill="#80f0ff" fill-opacity="0.66"/><circle cx="454.5" cy="282.5" r="2.4" fill="#80f0ff" fill-opacity="0.72"/><circle cx="462.8" cy="219.9" r="1.1" fill="#00e5ff" fill-opacity="0.42"/><circle cx="323.0" cy="429.2" r="0.5" fill="#0080ff" fill-opacity="0.65"/><circle cx="320.2" cy="212.3" r="1.4" fill="#00e5ff" fill-opacity="0.70"/><circle cx="257.9" cy="383.8" r="1.1" fill="#80f0ff" fill-opacity="0.79"/><circle cx="470.6" cy="240.0" r="2.7" fill="#0080ff" fill-opacity="0.30"/><circle cx="426.1" cy="283.9" r="1.7" fill="#00e5ff" fill-opacity="0.55"/><circle cx="254.5" cy="292.1" r="0.7" fill="#0080ff" fill-opacity="0.39"/><circle cx="269.4" cy="276.0" r="2.5" fill="#0080ff" fill-opacity="0.55"/><circle cx="347.7" cy="367.7" r="2.3" fill="#00e5ff" fill-opacity="0.74"/><circle cx="465.9" cy="284.7" r="1.7" fill="#80f0ff" fill-opacity="0.44"/><circle cx="251.6" cy="427.5" r="0.6" fill="#00e5ff" fill-opacity="0.63"/><circle cx="193.2" cy="386.5" r="1.3" fill="#00e5ff" fill-opacity="0.77"/><circle cx="438.9" cy="316.4" r="2.5" fill="#00e5ff" fill-opacity="0.89"/><circle cx="250.6" cy="350.9" r="2.9" fill="#80f0ff" fill-opacity="0.39"/><circle cx="360.6" cy="308.8" r="0.7" fill="#00e5ff" fill-opacity="0.61"/><circle cx="318.3" cy="243.7" r="1.0" fill="#00e5ff" fill-opacity="0.83"/><circle cx="224.9" cy="362.2" r="2.9" fill="#0080ff" fill-opacity="0.37"/><circle cx="278.8" cy="387.6" r="1.8" fill="#0080ff" fill-opacity="0.45"/><circle cx="402.1" cy="326.8" r="1.8" fill="#80f0ff" fill-opacity="0.80"/><circle cx="234.1" cy="391.9" r="1.0" fill="#0080ff" fill-opacity="0.84"/><circle cx="258.2" cy="294.5" r="2.7" fill="#80f0ff" fill-opacity="0.80"/><circle cx="212.9" cy="441.5" r="2.5" fill="#80f0ff" fill-opacity="0.57"/><circle cx="322.2" cy="396.8" r="1.1" fill="#80f0ff" fill-opacity="0.72"/><circle cx="281.2" cy="420.3" r="0.6" fill="#0080ff" fill-opacity="0.34"/><circle cx="391.9" cy="328.8" r="2.4" fill="#0080ff" fill-opacity="0.73"/><circle cx="405.2" cy="256.9" r="2.1" fill="#00e5ff" fill-opacity="0.66"/><circle cx="265.8" cy="394.5" r="0.8" fill="#0080ff" fill-opacity="0.62"/><circle cx="269.3" cy="269.2" r="0.9" fill="#00e5ff" fill-opacity="0.41"/><circle cx="329.8" cy="375.0" r="2.1" fill="#0080ff" fill-opacity="0.59"/><circle cx="371.9" cy="366.0" r="2.6" fill="#00e5ff" fill-opacity="0.85"/><circle cx="247.7" cy="282.9" r="1.4" fill="#0080ff" fill-opacity="0.87"/><circle cx="416.3" cy="198.6" r="1.6" fill="#80f0ff" fill-opacity="0.75"/><circle cx="327.4" cy="449.8" r="2.9" fill="#0080ff" fill-opacity="0.70"/><circle cx="343.5" cy="347.6" r="1.0" fill="#00e5ff" fill-opacity="0.68"/><circle cx="426.8" cy="293.5" r="1.9" fill="#80f0ff" fill-opacity="0.84"/><circle cx="289.0" cy="451.1" r="2.5" fill="#00e5ff" fill-opacity="0.37"/><circle cx="406.9" cy="409.5" r="0.9" fill="#00e5ff" fill-opacity="0.24"/><circle cx="340.0" cy="393.0" r="1.1" fill="#00e5ff" fill-opacity="0.42"/><circle cx="389.1" cy="412.2" r="1.1" fill="#00e5ff" fill-opacity="0.33"/><circle cx="343.8" cy="431.5" r="2.7" fill="#80f0ff" fill-opacity="0.78"/><circle cx="216.5" cy="362.2" r="1.8" fill="#00e5ff" fill-opacity="0.64"/><circle cx="336.4" cy="333.5" r="2.0" fill="#00e5ff" fill-opacity="0.21"/><circle cx="293.7" cy="294.6" r="1.0" fill="#0080ff" fill-opacity="0.76"/><circle cx="386.0" cy="340.6" r="1.7" fill="#00e5ff" fill-opacity="0.68"/><circle cx="252.8" cy="377.5" r="2.0" fill="#0080ff" fill-opacity="0.38"/><circle cx="277.6" cy="333.2" r="2.1" fill="#80f0ff" fill-opacity="0.33"/><circle cx="412.0" cy="246.9" r="1.8" fill="#80f0ff" fill-opacity="0.60"/><circle cx="226.7" cy="428.3" r="2.4" fill="#0080ff" fill-opacity="0.22"/><circle cx="398.6" cy="325.1" r="1.1" fill="#00e5ff" fill-opacity="0.90"/><circle cx="467.5" cy="309.4" r="1.4" fill="#00e5ff" fill-opacity="0.58"/><circle cx="211.1" cy="398.1" r="0.9" fill="#80f0ff" fill-opacity="0.83"/><circle cx="323.9" cy="236.3" r="2.4" fill="#00e5ff" fill-opacity="0.22"/><circle cx="238.3" cy="344.3" r="0.9" fill="#0080ff" fill-opacity="0.64"/><circle cx="417.3" cy="194.7" r="2.1" fill="#0080ff" fill-opacity="0.40"/><circle cx="289.9" cy="424.0" r="1.3" fill="#0080ff" fill-opacity="0.60"/><circle cx="312.7" cy="304.0" r="1.1" fill="#0080ff" fill-opacity="0.20"/><circle cx="237.5" cy="429.3" r="0.6" fill="#0080ff" fill-opacity="0.68"/><circle cx="433.0" cy="329.2" r="0.6" fill="#0080ff" fill-opacity="0.53"/><circle cx="450.5" cy="300.4" r="2.6" fill="#00e5ff" fill-opacity="0.41"/><circle cx="230.2" cy="406.0" r="1.3" fill="#0080ff" fill-opacity="0.86"/><circle cx="389.5" cy="330.8" r="0.6" fill="#0080ff" fill-opacity="0.56"/><circle cx="462.6" cy="243.7" r="2.8" fill="#0080ff" fill-opacity="0.55"/><circle cx="450.6" cy="338.6" r="1.7" fill="#0080ff" fill-opacity="0.85"/><circle cx="457.2" cy="312.1" r="1.7" fill="#0080ff" fill-opacity="0.42"/><circle cx="200.4" cy="401.2" r="1.8" fill="#00e5ff" fill-opacity="0.63"/><circle cx="336.6" cy="261.1" r="1.7" fill="#00e5ff" fill-opacity="0.28"/><circle cx="372.0" cy="213.0" r="0.5" fill="#00e5ff" fill-opacity="0.31"/><circle cx="431.8" cy="249.9" r="1.3" fill="#80f0ff" fill-opacity="0.32"/><circle cx="254.3" cy="319.7" r="1.8" fill="#00e5ff" fill-opacity="0.53"/><circle cx="368.1" cy="348.1" r="1.4" fill="#00e5ff" fill-opacity="0.52"/><circle cx="209.1" cy="372.2" r="2.5" fill="#80f0ff" fill-opacity="0.21"/><circle cx="418.0" cy="232.9" r="2.0" fill="#80f0ff" fill-opacity="0.58"/><circle cx="311.8" cy="399.4" r="1.5" fill="#00e5ff" fill-opacity="0.62"/><circle cx="383.7" cy="389.9" r="1.3" fill="#0080ff" fill-opacity="0.28"/><circle cx="393.0" cy="290.5" r="1.8" fill="#00e5ff" fill-opacity="0.90"/><circle cx="372.4" cy="347.6" r="1.6" fill="#80f0ff" fill-opacity="0.66"/><circle cx="345.6" cy="294.7" r="0.9" fill="#0080ff" fill-opacity="0.75"/><circle cx="286.0" cy="463.6" r="0.5" fill="#0080ff" fill-opacity="0.68"/><circle cx="320.9" cy="407.2" r="22.9" fill="#00e5ff" fill-opacity="0.107"/><circle cx="338.1" cy="339.7" r="19.6" fill="#00e5ff" fill-opacity="0.041"/><circle cx="431.3" cy="388.1" r="26.6" fill="#0080ff" fill-opacity="0.076"/><circle cx="303.0" cy="318.2" r="12.7" fill="#0080ff" fill-opacity="0.072"/><circle cx="375.8" cy="349.4" r="13.5" fill="#00e5ff" fill-opacity="0.089"/><circle cx="299.2" cy="402.0" r="15.1" fill="#0080ff" fill-opacity="0.045"/><circle cx="333.6" cy="343.8" r="28.6" fill="#0080ff" fill-opacity="0.054"/><circle cx="315.9" cy="408.9" r="11.7" fill="#00e5ff" fill-opacity="0.090"/>
    <circle cx="256" cy="256" r="28" fill="url(#nodeGlow)" filter="url(#nodeBlur)"/>
    <circle cx="256" cy="256" r="14" fill="#00e5ff" fill-opacity="0.4"/>
    <circle cx="256" cy="256" r="7" fill="#00e5ff" fill-opacity="0.8"/>
    <circle cx="256" cy="256" r="4" fill="white" fill-opacity="0.9"/>
  
  </g>

  <defs>
    <clipPath id="circleClip">
      <circle cx="256" cy="256" r="220"/>
    </clipPath>
    <clipPath id="footballClip">
      <polygon points="36,36 476,36 476,36 476,36"/>
    </clipPath>
    <radialGradient id="ballBg" cx="40%" cy="40%" r="65%">
      <stop offset="0%" stop-color="#f8f8f0"/>
      <stop offset="70%" stop-color="#ededde"/>
      <stop offset="100%" stop-color="#d8d8c8"/>
    </radialGradient>
    <radialGradient id="poleGlow" cx="30%" cy="30%" r="40%">
      <stop offset="0%" stop-color="#f0c040" stop-opacity="0.35"/>
      <stop offset="100%" stop-color="#f0c040" stop-opacity="0"/>
    </radialGradient>
    <filter id="ballShadow" x="-10%" y="-10%" width="120%" height="120%">
      <feDropShadow dx="3" dy="3" stdDeviation="8" flood-color="#0008"/>
    </filter>
    <linearGradient id="diagFade" x1="0" y1="0" x2="1" y2="1">
      <stop offset="60%" stop-color="white" stop-opacity="1"/>
      <stop offset="85%" stop-color="white" stop-opacity="0.2"/>
      <stop offset="100%" stop-color="white" stop-opacity="0"/>
    </linearGradient>
    <mask id="footballMask">
      <circle cx="256" cy="256" r="220" fill="url(#diagFade)"/>
    </mask>
  </defs>

  <g clip-path="url(#circleClip)" mask="url(#footballMask)">
    <!-- Ball background -->
    <circle cx="256" cy="256" r="220" fill="url(#ballBg)" filter="url(#ballShadow)"/>

    <!-- Pole glow (upper-left) -->
    <circle cx="196" cy="196" r="100" fill="url(#poleGlow)"/>
  
    <path d="M367.36,175.40L360.98,215.65L320.73,222.02L302.23,185.71L331.04,156.90Z" fill="#1a1a1a" fill-opacity="0.740"
          stroke="#f0c040" stroke-width="2" stroke-opacity="0.666"
          stroke-linejoin="round"/>
    <path d="M156.26,207.93L115.65,214.36L96.98,177.73L126.06,148.66L162.69,167.32Z" fill="#1a1a1a" fill-opacity="1.000"
          stroke="#f0c040" stroke-width="2" stroke-opacity="0.900"
          stroke-linejoin="round"/>
    <path d="M88.90,168.41L69.20,129.74L99.89,99.05L138.56,118.76L131.77,161.62Z" fill="#1a1a1a" fill-opacity="1.000"
          stroke="#f0c040" stroke-width="2" stroke-opacity="0.900"
          stroke-linejoin="round"/>
    <path d="M276.97,127.28L245.78,158.47L206.47,138.44L213.37,94.87L256.94,87.97Z" fill="#1a1a1a" fill-opacity="1.000"
          stroke="#f0c040" stroke-width="2" stroke-opacity="0.900"
          stroke-linejoin="round"/>
    <path d="M244.56,108.99L275.99,77.56L315.59,97.74L308.64,141.64L264.74,148.59Z" fill="#1a1a1a" fill-opacity="1.000"
          stroke="#f0c040" stroke-width="2" stroke-opacity="0.900"
          stroke-linejoin="round"/>
    <path d="M363.89,74.98L384.22,114.86L352.56,146.52L312.68,126.19L319.68,81.98Z" fill="#1a1a1a" fill-opacity="0.529"
          stroke="#f0c040" stroke-width="2" stroke-opacity="0.476"
          stroke-linejoin="round"/>
    <path d="M162.21,139.97L122.00,119.49L129.06,74.92L173.63,67.86L194.11,108.07Z" fill="#1a1a1a" fill-opacity="1.000"
          stroke="#f0c040" stroke-width="2" stroke-opacity="0.900"
          stroke-linejoin="round"/>
    <path d="M298.38,54.91L343.98,47.69L364.95,88.83L332.30,121.47L291.16,100.51Z" fill="#1a1a1a" fill-opacity="1.000"
          stroke="#f0c040" stroke-width="2" stroke-opacity="0.900"
          stroke-linejoin="round"/>
    <path d="M175.97,96.56L183.23,50.74L229.05,43.48L250.11,84.82L217.31,117.63Z" fill="#1a1a1a" fill-opacity="1.000"
          stroke="#f0c040" stroke-width="2" stroke-opacity="0.900"
          stroke-linejoin="round"/>
    <path d="M227.97,46.94L274.00,39.65L295.15,81.17L262.20,114.12L220.68,92.97Z" fill="#1a1a1a" fill-opacity="1.000"
          stroke="#f0c040" stroke-width="2" stroke-opacity="0.900"
          stroke-linejoin="round"/>
  </g>
<g id="transition"><circle cx="306.8" cy="270.3" r="1.5" fill="#00e5ff" fill-opacity="0.02"/><circle cx="352.0" cy="228.6" r="1.5" fill="#00e5ff" fill-opacity="0.04"/><circle cx="344.8" cy="134.6" r="1.3" fill="#f0c040" fill-opacity="0.32"/><circle cx="327.8" cy="188.5" r="2.4" fill="#00e5ff" fill-opacity="0.66"/><circle cx="295.7" cy="185.8" r="1.9" fill="#f0c040" fill-opacity="0.32"/><circle cx="309.7" cy="226.6" r="1.8" fill="#00e5ff" fill-opacity="0.47"/><circle cx="230.1" cy="299.1" r="2.5" fill="#00e5ff" fill-opacity="0.30"/><circle cx="293.2" cy="285.1" r="1.6" fill="#00e5ff" fill-opacity="0.04"/><circle cx="237.4" cy="303.1" r="2.1" fill="#00e5ff" fill-opacity="0.54"/><circle cx="315.4" cy="263.4" r="2.9" fill="#00e5ff" fill-opacity="0.05"/><circle cx="227.7" cy="304.9" r="2.2" fill="#0080ff" fill-opacity="0.30"/><circle cx="167.5" cy="384.6" r="0.5" fill="#00e5ff" fill-opacity="0.25"/><circle cx="203.1" cy="292.6" r="2.9" fill="#f0c040" fill-opacity="0.31"/><circle cx="266.9" cy="282.7" r="1.8" fill="#00e5ff" fill-opacity="0.24"/><circle cx="266.9" cy="282.7" r="5.4" fill="#00e5ff" fill-opacity="0.124"/><circle cx="153.8" cy="355.9" r="1.8" fill="#0080ff" fill-opacity="0.87"/><circle cx="320.9" cy="183.2" r="1.1" fill="#f0c040" fill-opacity="0.31"/><circle cx="181.9" cy="280.1" r="0.8" fill="#f0c040" fill-opacity="0.13"/><circle cx="279.9" cy="262.7" r="1.8" fill="#0080ff" fill-opacity="0.32"/><circle cx="210.4" cy="242.2" r="1.9" fill="#fffff0" fill-opacity="0.07"/><circle cx="243.3" cy="300.9" r="2.0" fill="#00e5ff" fill-opacity="0.34"/><circle cx="243.3" cy="300.9" r="6.4" fill="#00e5ff" fill-opacity="0.072"/><circle cx="327.0" cy="149.2" r="2.7" fill="#fffff0" fill-opacity="0.41"/><circle cx="317.7" cy="145.5" r="2.7" fill="#f0c040" fill-opacity="0.19"/><circle cx="264.9" cy="230.7" r="2.5" fill="#fffff0" fill-opacity="0.33"/><circle cx="320.3" cy="176.5" r="2.4" fill="#f0c040" fill-opacity="0.65"/><circle cx="338.5" cy="155.9" r="2.6" fill="#f0c040" fill-opacity="0.53"/><circle cx="328.9" cy="170.8" r="2.2" fill="#fffff0" fill-opacity="0.34"/><circle cx="380.0" cy="192.2" r="1.4" fill="#0080ff" fill-opacity="0.07"/><circle cx="374.1" cy="196.1" r="1.9" fill="#00e5ff" fill-opacity="0.07"/><circle cx="356.9" cy="151.1" r="2.1" fill="#00e5ff" fill-opacity="0.80"/><circle cx="171.7" cy="304.5" r="2.0" fill="#f0c040" fill-opacity="0.28"/><circle cx="133.9" cy="333.9" r="2.2" fill="#f0c040" fill-opacity="0.13"/><circle cx="191.9" cy="339.6" r="2.4" fill="#0080ff" fill-opacity="0.39"/><circle cx="156.0" cy="365.8" r="2.1" fill="#00e5ff" fill-opacity="0.84"/><circle cx="281.8" cy="300.2" r="2.2" fill="#00e5ff" fill-opacity="0.02"/><circle cx="366.3" cy="185.4" r="2.2" fill="#00e5ff" fill-opacity="0.25"/><circle cx="155.2" cy="312.0" r="1.9" fill="#f0c040" fill-opacity="0.20"/><circle cx="141.6" cy="321.7" r="2.9" fill="#f0c040" fill-opacity="0.19"/><circle cx="338.7" cy="210.4" r="2.4" fill="#0080ff" fill-opacity="0.34"/><circle cx="172.2" cy="348.1" r="1.2" fill="#00e5ff" fill-opacity="0.63"/><circle cx="157.6" cy="354.4" r="2.9" fill="#00e5ff" fill-opacity="0.74"/><circle cx="157.6" cy="354.4" r="5.2" fill="#00e5ff" fill-opacity="0.091"/><circle cx="255.6" cy="310.0" r="0.8" fill="#00e5ff" fill-opacity="0.06"/><circle cx="203.1" cy="259.5" r="1.6" fill="#fffff0" fill-opacity="0.20"/><circle cx="203.4" cy="257.7" r="1.6" fill="#f0c040" fill-opacity="0.07"/><circle cx="273.9" cy="192.5" r="1.6" fill="#fffff0" fill-opacity="0.19"/><circle cx="268.9" cy="287.0" r="2.8" fill="#00e5ff" fill-opacity="0.28"/><circle cx="328.8" cy="234.9" r="2.9" fill="#0080ff" fill-opacity="0.13"/><circle cx="328.8" cy="234.9" r="4.8" fill="#0080ff" fill-opacity="0.103"/><circle cx="280.6" cy="222.9" r="0.7" fill="#f0c040" fill-opacity="0.48"/><circle cx="165.9" cy="294.4" r="0.7" fill="#fffff0" fill-opacity="0.11"/><circle cx="280.3" cy="286.6" r="2.8" fill="#00e5ff" fill-opacity="0.08"/><circle cx="316.5" cy="188.3" r="2.0" fill="#f0c040" fill-opacity="0.65"/><circle cx="338.8" cy="235.8" r="1.4" fill="#0080ff" fill-opacity="0.07"/><circle cx="174.2" cy="269.8" r="2.5" fill="#f0c040" fill-opacity="0.03"/><circle cx="372.8" cy="203.7" r="1.9" fill="#0080ff" fill-opacity="0.05"/><circle cx="364.3" cy="200.1" r="2.8" fill="#00e5ff" fill-opacity="0.12"/><circle cx="275.2" cy="283.7" r="2.9" fill="#0080ff" fill-opacity="0.16"/><circle cx="345.9" cy="156.4" r="2.3" fill="#fffff0" fill-opacity="0.32"/><circle cx="206.5" cy="344.0" r="1.9" fill="#0080ff" fill-opacity="0.28"/><circle cx="297.5" cy="148.4" r="2.7" fill="#f0c040" fill-opacity="0.05"/><circle cx="275.5" cy="198.6" r="0.6" fill="#f0c040" fill-opacity="0.20"/><circle cx="351.1" cy="184.1" r="2.8" fill="#0080ff" fill-opacity="0.58"/><circle cx="224.9" cy="251.3" r="1.6" fill="#fffff0" fill-opacity="0.30"/><circle cx="199.7" cy="354.6" r="1.8" fill="#00e5ff" fill-opacity="0.17"/><circle cx="244.9" cy="276.9" r="1.2" fill="#00e5ff" fill-opacity="0.89"/><circle cx="187.4" cy="297.6" r="2.4" fill="#f0c040" fill-opacity="0.56"/><circle cx="160.0" cy="317.4" r="3.0" fill="#f0c040" fill-opacity="0.22"/><circle cx="242.0" cy="310.5" r="1.5" fill="#0080ff" fill-opacity="0.30"/><circle cx="289.1" cy="246.1" r="1.6" fill="#00e5ff" fill-opacity="0.35"/><circle cx="330.7" cy="224.6" r="2.3" fill="#00e5ff" fill-opacity="0.25"/><circle cx="171.9" cy="269.9" r="2.1" fill="#f0c040" fill-opacity="0.02"/><circle cx="201.1" cy="372.5" r="1.2" fill="#00e5ff" fill-opacity="0.06"/><circle cx="381.3" cy="183.3" r="0.7" fill="#00e5ff" fill-opacity="0.14"/><circle cx="381.3" cy="183.3" r="6.9" fill="#00e5ff" fill-opacity="0.093"/><circle cx="375.8" cy="206.5" r="2.8" fill="#00e5ff" fill-opacity="0.03"/><circle cx="310.9" cy="218.8" r="1.8" fill="#00e5ff" fill-opacity="0.35"/><circle cx="332.5" cy="206.1" r="0.6" fill="#00e5ff" fill-opacity="0.43"/><circle cx="283.3" cy="265.8" r="2.2" fill="#0080ff" fill-opacity="0.36"/><circle cx="233.8" cy="284.1" r="2.1" fill="#00e5ff" fill-opacity="0.40"/><circle cx="232.4" cy="314.8" r="2.5" fill="#0080ff" fill-opacity="0.43"/><circle cx="273.6" cy="172.3" r="2.0" fill="#f0c040" fill-opacity="0.05"/><circle cx="273.6" cy="172.3" r="5.1" fill="#f0c040" fill-opacity="0.127"/><circle cx="217.1" cy="340.8" r="2.6" fill="#00e5ff" fill-opacity="0.24"/><circle cx="218.2" cy="240.4" r="1.8" fill="#f0c040" fill-opacity="0.07"/><circle cx="339.5" cy="138.9" r="2.5" fill="#f0c040" fill-opacity="0.33"/><circle cx="306.4" cy="135.1" r="1.8" fill="#fffff0" fill-opacity="0.03"/><circle cx="306.4" cy="135.1" r="3.9" fill="#fffff0" fill-opacity="0.130"/><circle cx="175.9" cy="391.5" r="2.0" fill="#0080ff" fill-opacity="0.08"/><circle cx="290.7" cy="259.7" r="3.0" fill="#0080ff" fill-opacity="0.29"/><circle cx="290.7" cy="259.7" r="5.3" fill="#0080ff" fill-opacity="0.074"/><circle cx="254.2" cy="213.7" r="1.5" fill="#fffff0" fill-opacity="0.18"/><circle cx="267.1" cy="291.3" r="2.6" fill="#0080ff" fill-opacity="0.21"/><circle cx="236.6" cy="306.0" r="0.7" fill="#0080ff" fill-opacity="0.48"/><circle cx="279.5" cy="266.8" r="1.6" fill="#00e5ff" fill-opacity="0.40"/><circle cx="327.8" cy="152.2" r="2.1" fill="#f0c040" fill-opacity="0.21"/><circle cx="330.0" cy="227.6" r="2.4" fill="#0080ff" fill-opacity="0.21"/><circle cx="282.5" cy="239.4" r="2.3" fill="#0080ff" fill-opacity="0.58"/><circle cx="217.4" cy="253.4" r="1.8" fill="#fffff0" fill-opacity="0.17"/><circle cx="264.0" cy="294.1" r="2.1" fill="#0080ff" fill-opacity="0.23"/><circle cx="241.3" cy="288.9" r="2.8" fill="#00e5ff" fill-opacity="0.61"/><circle cx="347.6" cy="184.4" r="2.4" fill="#00e5ff" fill-opacity="0.59"/><circle cx="300.6" cy="176.7" r="2.0" fill="#fffff0" fill-opacity="0.31"/><circle cx="171.3" cy="285.6" r="2.1" fill="#fffff0" fill-opacity="0.05"/><circle cx="270.6" cy="241.6" r="1.9" fill="#00e5ff" fill-opacity="0.85"/><circle cx="266.7" cy="261.8" r="0.7" fill="#0080ff" fill-opacity="0.52"/><circle cx="280.7" cy="273.4" r="1.2" fill="#0080ff" fill-opacity="0.10"/><circle cx="231.1" cy="347.4" r="3.0" fill="#0080ff" fill-opacity="0.03"/><circle cx="177.6" cy="352.5" r="1.0" fill="#00e5ff" fill-opacity="0.77"/><circle cx="367.2" cy="188.6" r="1.9" fill="#00e5ff" fill-opacity="0.27"/><circle cx="266.1" cy="232.2" r="1.2" fill="#fffff0" fill-opacity="0.61"/><circle cx="358.4" cy="146.2" r="0.6" fill="#fffff0" fill-opacity="0.60"/><circle cx="247.4" cy="327.7" r="2.2" fill="#00e5ff" fill-opacity="0.04"/><circle cx="236.9" cy="284.6" r="1.6" fill="#00e5ff" fill-opacity="0.45"/><circle cx="180.4" cy="350.8" r="2.1" fill="#0080ff" fill-opacity="0.38"/><circle cx="186.5" cy="320.1" r="2.9" fill="#f0c040" fill-opacity="0.30"/><circle cx="364.0" cy="151.9" r="2.2" fill="#00e5ff" fill-opacity="0.50"/><circle cx="339.8" cy="203.6" r="1.7" fill="#0080ff" fill-opacity="0.17"/><circle cx="339.8" cy="203.6" r="3.9" fill="#0080ff" fill-opacity="0.127"/><circle cx="158.5" cy="357.3" r="0.8" fill="#0080ff" fill-opacity="0.57"/><circle cx="336.9" cy="163.0" r="1.8" fill="#fffff0" fill-opacity="0.28"/><circle cx="318.8" cy="139.5" r="1.0" fill="#fffff0" fill-opacity="0.09"/><circle cx="229.5" cy="252.6" r="2.5" fill="#fffff0" fill-opacity="0.42"/><circle cx="241.3" cy="281.4" r="2.3" fill="#00e5ff" fill-opacity="0.66"/><circle cx="162.2" cy="358.6" r="2.7" fill="#00e5ff" fill-opacity="0.48"/><circle cx="155.1" cy="334.6" r="1.2" fill="#fffff0" fill-opacity="0.67"/><circle cx="198.1" cy="366.7" r="1.0" fill="#0080ff" fill-opacity="0.10"/><circle cx="229.5" cy="333.8" r="2.3" fill="#0080ff" fill-opacity="0.13"/><circle cx="229.5" cy="333.8" r="5.9" fill="#0080ff" fill-opacity="0.075"/><circle cx="199.1" cy="251.8" r="0.7" fill="#f0c040" fill-opacity="0.04"/><circle cx="211.6" cy="230.7" r="2.9" fill="#fffff0" fill-opacity="0.03"/><circle cx="180.6" cy="288.5" r="1.2" fill="#fffff0" fill-opacity="0.21"/><circle cx="180.6" cy="288.5" r="4.4" fill="#fffff0" fill-opacity="0.107"/><circle cx="286.1" cy="169.7" r="2.1" fill="#fffff0" fill-opacity="0.11"/><circle cx="206.8" cy="256.3" r="1.6" fill="#f0c040" fill-opacity="0.09"/><circle cx="216.2" cy="365.7" r="2.8" fill="#0080ff" fill-opacity="0.04"/><circle cx="327.2" cy="238.3" r="2.7" fill="#00e5ff" fill-opacity="0.12"/><circle cx="266.5" cy="250.7" r="1.7" fill="#00e5ff" fill-opacity="0.43"/><circle cx="165.7" cy="320.2" r="2.4" fill="#fffff0" fill-opacity="0.38"/><circle cx="232.8" cy="308.4" r="1.6" fill="#00e5ff" fill-opacity="0.56"/><circle cx="146.9" cy="341.8" r="2.8" fill="#fffff0" fill-opacity="0.22"/><circle cx="314.5" cy="159.6" r="2.2" fill="#f0c040" fill-opacity="0.14"/><circle cx="208.6" cy="256.1" r="1.0" fill="#f0c040" fill-opacity="0.21"/><circle cx="266.0" cy="265.1" r="1.4" fill="#00e5ff" fill-opacity="0.59"/><circle cx="225.5" cy="325.1" r="2.8" fill="#00e5ff" fill-opacity="0.20"/><circle cx="315.8" cy="190.9" r="0.9" fill="#fffff0" fill-opacity="0.52"/><circle cx="365.4" cy="163.2" r="1.2" fill="#0080ff" fill-opacity="0.29"/><circle cx="152.5" cy="307.4" r="2.2" fill="#f0c040" fill-opacity="0.06"/><circle cx="189.1" cy="367.6" r="1.6" fill="#00e5ff" fill-opacity="0.11"/><circle cx="154.2" cy="294.2" r="2.5" fill="#f0c040" fill-opacity="0.05"/><circle cx="257.7" cy="186.3" r="2.6" fill="#f0c040" fill-opacity="0.05"/><circle cx="317.5" cy="258.6" r="1.7" fill="#0080ff" fill-opacity="0.04"/><circle cx="155.2" cy="363.7" r="2.4" fill="#0080ff" fill-opacity="0.89"/><circle cx="229.7" cy="296.7" r="1.5" fill="#0080ff" fill-opacity="0.73"/><circle cx="355.7" cy="168.9" r="2.6" fill="#00e5ff" fill-opacity="0.31"/><circle cx="134.7" cy="347.9" r="2.8" fill="#f0c040" fill-opacity="0.22"/><circle cx="221.4" cy="288.2" r="2.9" fill="#00e5ff" fill-opacity="0.35"/><circle cx="258.4" cy="298.7" r="1.6" fill="#00e5ff" fill-opacity="0.22"/><circle cx="283.4" cy="218.0" r="1.7" fill="#fffff0" fill-opacity="0.53"/><circle cx="273.2" cy="288.6" r="2.5" fill="#00e5ff" fill-opacity="0.18"/><circle cx="185.0" cy="270.5" r="2.8" fill="#f0c040" fill-opacity="0.08"/><circle cx="249.1" cy="313.1" r="2.7" fill="#00e5ff" fill-opacity="0.08"/><circle cx="166.8" cy="284.5" r="2.2" fill="#fffff0" fill-opacity="0.04"/><circle cx="208.0" cy="233.7" r="1.9" fill="#f0c040" fill-opacity="0.02"/><circle cx="282.7" cy="292.6" r="1.3" fill="#0080ff" fill-opacity="0.08"/><circle cx="334.4" cy="212.8" r="1.8" fill="#00e5ff" fill-opacity="0.39"/><circle cx="334.4" cy="212.8" r="3.8" fill="#00e5ff" fill-opacity="0.102"/><circle cx="252.0" cy="233.9" r="1.7" fill="#fffff0" fill-opacity="0.52"/><circle cx="206.9" cy="303.5" r="2.1" fill="#0080ff" fill-opacity="0.40"/><circle cx="325.4" cy="181.7" r="2.3" fill="#0080ff" fill-opacity="0.36"/><circle cx="234.8" cy="299.1" r="1.5" fill="#0080ff" fill-opacity="0.42"/><circle cx="181.9" cy="358.7" r="0.9" fill="#00e5ff" fill-opacity="0.39"/><circle cx="274.9" cy="188.2" r="2.9" fill="#fffff0" fill-opacity="0.16"/><circle cx="119.1" cy="329.3" r="1.3" fill="#fffff0" fill-opacity="0.03"/><circle cx="173.9" cy="353.6" r="1.5" fill="#00e5ff" fill-opacity="0.76"/><circle cx="290.3" cy="210.4" r="2.0" fill="#f0c040" fill-opacity="0.66"/><circle cx="302.9" cy="259.1" r="2.2" fill="#00e5ff" fill-opacity="0.19"/><circle cx="316.4" cy="154.7" r="1.5" fill="#fffff0" fill-opacity="0.19"/><circle cx="305.4" cy="215.8" r="2.2" fill="#0080ff" fill-opacity="0.59"/><circle cx="244.9" cy="320.1" r="0.5" fill="#00e5ff" fill-opacity="0.09"/><circle cx="216.6" cy="338.8" r="1.4" fill="#0080ff" fill-opacity="0.27"/><circle cx="221.1" cy="273.1" r="2.5" fill="#fffff0" fill-opacity="0.70"/><circle cx="182.5" cy="260.5" r="1.3" fill="#fffff0" fill-opacity="0.04"/><circle cx="167.0" cy="374.3" r="1.6" fill="#0080ff" fill-opacity="0.35"/><circle cx="266.6" cy="204.4" r="1.8" fill="#f0c040" fill-opacity="0.26"/><circle cx="270.7" cy="299.3" r="2.6" fill="#00e5ff" fill-opacity="0.11"/><circle cx="204.5" cy="313.5" r="2.1" fill="#00e5ff" fill-opacity="0.75"/><circle cx="228.9" cy="244.2" r="1.1" fill="#fffff0" fill-opacity="0.27"/><circle cx="228.9" cy="244.2" r="7.0" fill="#fffff0" fill-opacity="0.079"/><circle cx="257.5" cy="254.4" r="1.5" fill="#00e5ff" fill-opacity="0.41"/><circle cx="246.8" cy="229.8" r="1.6" fill="#f0c040" fill-opacity="0.23"/><circle cx="291.6" cy="176.9" r="1.9" fill="#f0c040" fill-opacity="0.12"/><circle cx="216.7" cy="359.7" r="0.7" fill="#0080ff" fill-opacity="0.04"/><circle cx="260.0" cy="270.1" r="1.3" fill="#00e5ff" fill-opacity="0.25"/><circle cx="352.6" cy="139.4" r="1.1" fill="#f0c040" fill-opacity="0.27"/><circle cx="346.1" cy="209.0" r="2.9" fill="#0080ff" fill-opacity="0.22"/><circle cx="204.1" cy="318.0" r="2.7" fill="#00e5ff" fill-opacity="0.56"/><circle cx="288.5" cy="219.4" r="0.9" fill="#00e5ff" fill-opacity="0.74"/><circle cx="214.4" cy="263.8" r="0.8" fill="#fffff0" fill-opacity="0.36"/><circle cx="268.4" cy="288.4" r="2.4" fill="#00e5ff" fill-opacity="0.24"/><circle cx="257.6" cy="272.5" r="2.7" fill="#00e5ff" fill-opacity="0.67"/><circle cx="262.9" cy="268.4" r="1.3" fill="#00e5ff" fill-opacity="0.59"/><circle cx="345.6" cy="208.1" r="1.8" fill="#00e5ff" fill-opacity="0.21"/><circle cx="178.5" cy="386.8" r="1.2" fill="#00e5ff" fill-opacity="0.07"/><circle cx="199.2" cy="259.9" r="2.3" fill="#fffff0" fill-opacity="0.07"/><circle cx="264.9" cy="283.2" r="1.7" fill="#0080ff" fill-opacity="0.14"/><circle cx="248.1" cy="236.7" r="0.5" fill="#fffff0" fill-opacity="0.29"/><circle cx="242.7" cy="320.0" r="1.2" fill="#0080ff" fill-opacity="0.06"/><circle cx="226.4" cy="243.0" r="0.6" fill="#f0c040" fill-opacity="0.28"/><circle cx="361.9" cy="207.1" r="2.9" fill="#00e5ff" fill-opacity="0.12"/><circle cx="209.5" cy="343.2" r="2.4" fill="#00e5ff" fill-opacity="0.20"/><circle cx="212.5" cy="238.4" r="2.8" fill="#f0c040" fill-opacity="0.03"/><circle cx="361.6" cy="188.5" r="0.9" fill="#00e5ff" fill-opacity="0.13"/><circle cx="154.2" cy="299.8" r="0.9" fill="#f0c040" fill-opacity="0.05"/><circle cx="218.5" cy="301.8" r="2.8" fill="#0080ff" fill-opacity="0.62"/><circle cx="208.0" cy="306.4" r="1.2" fill="#0080ff" fill-opacity="0.31"/><circle cx="194.2" cy="357.3" r="1.9" fill="#0080ff" fill-opacity="0.29"/><circle cx="218.2" cy="338.7" r="2.0" fill="#0080ff" fill-opacity="0.26"/><circle cx="318.1" cy="198.4" r="2.1" fill="#00e5ff" fill-opacity="0.51"/><circle cx="291.4" cy="185.7" r="0.8" fill="#f0c040" fill-opacity="0.14"/><circle cx="379.9" cy="199.1" r="0.8" fill="#00e5ff" fill-opacity="0.05"/><circle cx="372.5" cy="166.3" r="2.4" fill="#0080ff" fill-opacity="0.41"/><circle cx="262.9" cy="182.4" r="0.6" fill="#fffff0" fill-opacity="0.04"/><circle cx="308.9" cy="240.3" r="2.6" fill="#0080ff" fill-opacity="0.29"/><circle cx="218.2" cy="258.5" r="1.0" fill="#f0c040" fill-opacity="0.39"/><circle cx="218.2" cy="258.5" r="3.2" fill="#f0c040" fill-opacity="0.057"/><circle cx="245.5" cy="241.5" r="2.2" fill="#f0c040" fill-opacity="0.62"/><circle cx="253.5" cy="233.1" r="2.2" fill="#f0c040" fill-opacity="0.21"/><circle cx="175.7" cy="353.3" r="1.8" fill="#0080ff" fill-opacity="0.32"/><circle cx="178.2" cy="339.9" r="1.7" fill="#00e5ff" fill-opacity="0.67"/><circle cx="247.7" cy="271.4" r="2.4" fill="#00e5ff" fill-opacity="0.77"/><circle cx="191.0" cy="370.8" r="1.0" fill="#00e5ff" fill-opacity="0.17"/><circle cx="191.0" cy="370.8" r="3.7" fill="#00e5ff" fill-opacity="0.123"/><circle cx="265.9" cy="195.2" r="2.3" fill="#f0c040" fill-opacity="0.15"/><circle cx="302.7" cy="205.2" r="0.6" fill="#00e5ff" fill-opacity="0.50"/><circle cx="259.8" cy="268.0" r="0.9" fill="#0080ff" fill-opacity="0.40"/><circle cx="328.4" cy="180.0" r="2.0" fill="#00e5ff" fill-opacity="0.37"/><circle cx="201.1" cy="322.7" r="2.6" fill="#0080ff" fill-opacity="0.39"/><circle cx="201.1" cy="322.7" r="6.3" fill="#0080ff" fill-opacity="0.051"/><circle cx="243.3" cy="205.4" r="1.2" fill="#f0c040" fill-opacity="0.03"/><circle cx="243.3" cy="205.4" r="5.8" fill="#f0c040" fill-opacity="0.052"/><circle cx="320.2" cy="134.4" r="1.3" fill="#fffff0" fill-opacity="0.11"/><circle cx="253.8" cy="256.4" r="0.8" fill="#00e5ff" fill-opacity="0.87"/><circle cx="352.4" cy="207.7" r="0.9" fill="#00e5ff" fill-opacity="0.20"/><circle cx="249.3" cy="258.5" r="2.3" fill="#0080ff" fill-opacity="0.35"/><circle cx="276.3" cy="214.6" r="0.6" fill="#f0c040" fill-opacity="0.45"/><circle cx="159.7" cy="283.8" r="2.7" fill="#f0c040" fill-opacity="0.05"/><circle cx="355.9" cy="158.7" r="1.9" fill="#0080ff" fill-opacity="0.36"/><circle cx="303.2" cy="205.4" r="0.7" fill="#0080ff" fill-opacity="0.56"/><circle cx="179.0" cy="387.4" r="2.4" fill="#00e5ff" fill-opacity="0.06"/><circle cx="223.7" cy="334.1" r="2.0" fill="#0080ff" fill-opacity="0.22"/><circle cx="219.4" cy="348.6" r="2.2" fill="#00e5ff" fill-opacity="0.08"/><circle cx="254.6" cy="234.6" r="2.0" fill="#fffff0" fill-opacity="0.27"/><circle cx="380.9" cy="170.4" r="1.8" fill="#00e5ff" fill-opacity="0.23"/><circle cx="355.4" cy="169.7" r="0.6" fill="#00e5ff" fill-opacity="0.66"/><circle cx="284.2" cy="222.0" r="1.4" fill="#fffff0" fill-opacity="0.72"/><circle cx="352.3" cy="201.0" r="2.8" fill="#00e5ff" fill-opacity="0.23"/><circle cx="159.6" cy="312.6" r="2.2" fill="#f0c040" fill-opacity="0.26"/><circle cx="296.0" cy="254.4" r="2.1" fill="#00e5ff" fill-opacity="0.15"/><circle cx="313.0" cy="265.6" r="0.8" fill="#0080ff" fill-opacity="0.02"/><circle cx="184.6" cy="281.8" r="0.5" fill="#f0c040" fill-opacity="0.11"/><circle cx="239.9" cy="253.3" r="2.1" fill="#f0c040" fill-opacity="0.67"/><circle cx="192.6" cy="340.6" r="2.9" fill="#00e5ff" fill-opacity="0.34"/><circle cx="207.2" cy="252.0" r="2.0" fill="#fffff0" fill-opacity="0.14"/><circle cx="144.2" cy="303.4" r="1.7" fill="#f0c040" fill-opacity="0.03"/><circle cx="217.0" cy="264.4" r="0.9" fill="#f0c040" fill-opacity="0.28"/><circle cx="355.1" cy="225.7" r="1.7" fill="#0080ff" fill-opacity="0.04"/><circle cx="355.1" cy="225.7" r="4.7" fill="#0080ff" fill-opacity="0.070"/><circle cx="371.0" cy="182.7" r="2.0" fill="#0080ff" fill-opacity="0.13"/><circle cx="280.2" cy="246.1" r="0.9" fill="#00e5ff" fill-opacity="0.65"/><circle cx="342.8" cy="222.7" r="0.9" fill="#0080ff" fill-opacity="0.15"/><circle cx="140.9" cy="328.4" r="3.0" fill="#f0c040" fill-opacity="0.21"/><circle cx="238.7" cy="215.0" r="2.9" fill="#f0c040" fill-opacity="0.09"/><circle cx="249.8" cy="274.0" r="1.2" fill="#0080ff" fill-opacity="0.79"/><circle cx="295.2" cy="195.0" r="0.7" fill="#fffff0" fill-opacity="0.42"/><circle cx="262.9" cy="281.0" r="1.6" fill="#0080ff" fill-opacity="0.48"/><circle cx="316.5" cy="225.9" r="2.0" fill="#0080ff" fill-opacity="0.28"/><circle cx="171.0" cy="376.9" r="1.9" fill="#00e5ff" fill-opacity="0.36"/><circle cx="277.3" cy="175.9" r="2.5" fill="#fffff0" fill-opacity="0.10"/><circle cx="152.2" cy="316.5" r="1.8" fill="#fffff0" fill-opacity="0.16"/><circle cx="253.0" cy="329.6" r="1.1" fill="#00e5ff" fill-opacity="0.02"/><circle cx="302.7" cy="188.1" r="1.5" fill="#fffff0" fill-opacity="0.39"/><circle cx="250.5" cy="218.7" r="0.8" fill="#fffff0" fill-opacity="0.14"/><circle cx="250.5" cy="218.7" r="6.0" fill="#fffff0" fill-opacity="0.130"/><circle cx="293.0" cy="285.0" r="2.4" fill="#00e5ff" fill-opacity="0.04"/><circle cx="265.5" cy="305.4" r="1.5" fill="#00e5ff" fill-opacity="0.08"/><circle cx="115.7" cy="330.2" r="1.7" fill="#f0c040" fill-opacity="0.02"/><circle cx="115.7" cy="330.2" r="4.1" fill="#f0c040" fill-opacity="0.056"/><circle cx="339.1" cy="168.3" r="1.5" fill="#00e5ff" fill-opacity="0.52"/><circle cx="236.0" cy="206.3" r="1.9" fill="#f0c040" fill-opacity="0.02"/><circle cx="196.4" cy="293.7" r="2.9" fill="#f0c040" fill-opacity="0.51"/><circle cx="225.9" cy="237.2" r="1.6" fill="#f0c040" fill-opacity="0.16"/><circle cx="310.2" cy="264.9" r="0.8" fill="#0080ff" fill-opacity="0.04"/><circle cx="227.2" cy="299.0" r="2.4" fill="#0080ff" fill-opacity="0.69"/><circle cx="229.8" cy="246.6" r="1.3" fill="#f0c040" fill-opacity="0.18"/><circle cx="294.7" cy="191.2" r="2.2" fill="#fffff0" fill-opacity="0.28"/><circle cx="145.7" cy="356.3" r="1.4" fill="#fffff0" fill-opacity="0.43"/><circle cx="245.2" cy="332.6" r="2.1" fill="#00e5ff" fill-opacity="0.02"/><circle cx="204.5" cy="251.0" r="2.2" fill="#f0c040" fill-opacity="0.10"/><circle cx="196.0" cy="250.3" r="1.7" fill="#f0c040" fill-opacity="0.04"/><circle cx="354.6" cy="176.4" r="1.0" fill="#00e5ff" fill-opacity="0.28"/><circle cx="285.3" cy="233.4" r="2.4" fill="#00e5ff" fill-opacity="0.72"/><circle cx="226.0" cy="232.0" r="0.7" fill="#f0c040" fill-opacity="0.15"/><circle cx="289.3" cy="225.9" r="2.7" fill="#00e5ff" fill-opacity="0.66"/><circle cx="212.9" cy="333.1" r="1.1" fill="#0080ff" fill-opacity="0.29"/><circle cx="292.7" cy="236.0" r="0.9" fill="#0080ff" fill-opacity="0.60"/><circle cx="347.9" cy="186.6" r="1.1" fill="#00e5ff" fill-opacity="0.49"/><circle cx="261.7" cy="265.0" r="2.2" fill="#00e5ff" fill-opacity="0.40"/><circle cx="315.8" cy="215.9" r="2.1" fill="#0080ff" fill-opacity="0.70"/><circle cx="168.4" cy="359.7" r="1.1" fill="#0080ff" fill-opacity="0.31"/><circle cx="183.2" cy="260.0" r="2.9" fill="#fffff0" fill-opacity="0.03"/><circle cx="215.5" cy="272.6" r="1.3" fill="#f0c040" fill-opacity="0.39"/><circle cx="325.7" cy="223.0" r="1.3" fill="#00e5ff" fill-opacity="0.26"/><circle cx="352.9" cy="163.6" r="2.2" fill="#00e5ff" fill-opacity="0.48"/><circle cx="257.4" cy="289.4" r="0.8" fill="#00e5ff" fill-opacity="0.38"/><circle cx="314.2" cy="221.2" r="2.2" fill="#0080ff" fill-opacity="0.26"/><circle cx="166.3" cy="337.1" r="1.8" fill="#f0c040" fill-opacity="0.64"/><circle cx="161.6" cy="334.4" r="2.9" fill="#f0c040" fill-opacity="0.57"/><circle cx="339.0" cy="189.1" r="2.1" fill="#00e5ff" fill-opacity="0.80"/></g>
</g>

  <!-- Outer ring -->
  <circle cx="256" cy="256" r="220" fill="none" stroke="#f0c040" stroke-width="2.5" stroke-opacity="0.7"/>
  <circle cx="256" cy="256" r="216" fill="none" stroke="#f0c040" stroke-width="0.8" stroke-opacity="0.3"/>
  
</svg>