<svg xmlns="http://www.w3.org/2000/svg" viewBox="0 0 800 450" width="800" height="450" role="img" aria-label="Football on the grass">
  <defs>
    <linearGradient id="bg" x1="0" y1="0" x2="0" y2="1">
      <stop offset="0" stop-color="#0c7a52"/>
      <stop offset="1" stop-color="#064d33"/>
    </linearGradient>
  </defs>
  <rect width="800" height="450" fill="url(#bg)"/>
  <ellipse cx="400" cy="360" rx="120" ry="22" fill="#000000" opacity="0.22"/>
  <g transform="translate(400 215)">
    <circle r="105" fill="#f7f5ef"/>
    <circle r="105" fill="none" stroke="#1c1608" stroke-width="2" opacity="0.25"/>
    <g fill="#1c1608">
      <polygon points="0,-34 32,-11 20,27 -20,27 -32,-11"/>
      <polygon points="0,-105 24,-86 0,-58 -24,-86" opacity="0.9"/>
      <polygon points="86,-44 99,-12 74,9 50,-22" opacity="0.9"/>
      <polygon points="-86,-44 -50,-22 -74,9 -99,-12" opacity="0.9"/>
      <polygon points="58,70 30,40 50,18 86,40" opacity="0.9"/>
      <polygon points="-58,70 -86,40 -50,18 -30,40" opacity="0.9"/>
    </g>
  </g>
</svg>
