<svg xmlns="http://www.w3.org/2000/svg" viewBox="0 0 800 450" width="800" height="450" role="img" aria-label="Stadium crowd">
  <defs>
    <linearGradient id="cg" x1="0" y1="0" x2="0" y2="1">
      <stop offset="0" stop-color="#16233f"/>
      <stop offset="1" stop-color="#0a1122"/>
    </linearGradient>
  </defs>
  <rect width="800" height="450" fill="url(#cg)"/>
  <g opacity="0.9">
    <rect x="0" y="60" width="800" height="330" fill="#11182b"/>
  </g>
  <g fill="#f0c040" opacity="0.7">
    <!-- scattered "spectators" as small dots -->
    <g id="row"></g>
  </g>
  <g fill="#f0c040">
    <g opacity="0.55">
      <circle cx="40" cy="110" r="6"/><circle cx="90" cy="120" r="6"/><circle cx="150" cy="108" r="6"/><circle cx="210" cy="124" r="6"/><circle cx="270" cy="112" r="6"/><circle cx="330" cy="122" r="6"/><circle cx="390" cy="108" r="6"/><circle cx="450" cy="124" r="6"/><circle cx="510" cy="112" r="6"/><circle cx="570" cy="120" r="6"/><circle cx="630" cy="110" r="6"/><circle cx="690" cy="122" r="6"/><circle cx="750" cy="112" r="6"/>
    </g>
    <g opacity="0.4" fill="#3ed6c2">
      <circle cx="60" cy="170" r="6"/><circle cx="120" cy="182" r="6"/><circle cx="180" cy="168" r="6"/><circle cx="245" cy="184" r="6"/><circle cx="305" cy="172" r="6"/><circle cx="365" cy="182" r="6"/><circle cx="430" cy="168" r="6"/><circle cx="490" cy="184" r="6"/><circle cx="550" cy="172" r="6"/><circle cx="610" cy="182" r="6"/><circle cx="670" cy="168" r="6"/><circle cx="730" cy="182" r="6"/>
    </g>
    <g opacity="0.3">
      <circle cx="40" cy="232" r="6"/><circle cx="100" cy="244" r="6"/><circle cx="165" cy="230" r="6"/><circle cx="225" cy="246" r="6"/><circle cx="285" cy="234" r="6"/><circle cx="345" cy="244" r="6"/><circle cx="410" cy="230" r="6"/><circle cx="470" cy="246" r="6"/><circle cx="530" cy="234" r="6"/><circle cx="595" cy="244" r="6"/><circle cx="655" cy="230" r="6"/><circle cx="715" cy="244" r="6"/>
    </g>
  </g>
  <path d="M0 300 Q400 270 800 300 L800 450 L0 450 Z" fill="#0c7a52"/>
</svg>
